<?xml version="1.0" encoding="utf-8"?>
<!-- Generator: Adobe Illustrator 22.0.0, SVG Export Plug-In . SVG Version: 6.00 Build 0)  -->
<svg version="1.1" id="Camada_1" xmlns="http://www.w3.org/2000/svg" xmlns:xlink="http://www.w3.org/1999/xlink" x="0px" y="0px"
	 viewBox="0 0 400 400" style="enable-background:new 0 0 400 400;" xml:space="preserve">
<style type="text/css">
	.st0{fill:#A5C6E2;stroke:#A5C6E2;stroke-width:9;stroke-miterlimit:10;}
	.st1{opacity:0.55;fill:#A01127;stroke:#A5C6E2;stroke-width:12;stroke-miterlimit:10;}
	.st2{opacity:0.45;fill:#A5C6E2;stroke:#A5C6E2;stroke-width:9;stroke-miterlimit:10;}
	.st3{opacity:0.45;fill:#A01127;stroke:#A5C6E2;stroke-width:12;stroke-miterlimit:10;}
</style>
<line class="st0" x1="4.8" y1="111.4" x2="4.8" y2="35.2"/>
<line class="st0" x1="37.1" y1="5.1" x2="119.4" y2="5.1"/>
<line class="st0" x1="0" y1="39.6" x2="42.6" y2="0"/>
<line class="st0" x1="289.8" y1="5" x2="366" y2="5.2"/>
<line class="st0" x1="396" y1="37.6" x2="395.8" y2="119.9"/>
<line class="st0" x1="357.7" y1="-3.8" x2="402.9" y2="45"/>
<line class="st0" x1="395.8" y1="289.6" x2="395.9" y2="365.8"/>
<line class="st0" x1="363.6" y1="395.9" x2="281.3" y2="396"/>
<line class="st0" x1="405.8" y1="356.6" x2="354.1" y2="404.8"/>
<line class="st0" x1="111.4" y1="395.9" x2="35.2" y2="396"/>
<line class="st0" x1="5.1" y1="363.7" x2="5" y2="281.4"/>
<line class="st0" x1="41.6" y1="403" x2="-2.4" y2="355.7"/>
<line class="st1" x1="155.2" y1="200" x2="244.8" y2="200"/>
<line class="st1" x1="200.3" y1="244.8" x2="199.7" y2="155.2"/>
<line class="st2" x1="11.4" y1="277.1" x2="11.2" y2="42.3"/>
<line class="st2" x1="42.2" y1="13.6" x2="121.1" y2="13.6"/>
<line class="st2" x1="6.6" y1="46.5" x2="47.4" y2="8.7"/>
<line class="st2" x1="121.1" y1="13.6" x2="357.6" y2="13.7"/>
<line class="st2" x1="386.3" y1="44.6" x2="386.2" y2="284.9"/>
<line class="st2" x1="351.1" y1="4.4" x2="394.4" y2="50.9"/>
<line class="st2" x1="386.2" y1="284.9" x2="386.2" y2="357.6"/>
<line class="st2" x1="355.3" y1="386.4" x2="276.3" y2="386.4"/>
<line class="st2" x1="395.7" y1="348.8" x2="346.1" y2="394.9"/>
<line class="st2" x1="276.3" y1="386.4" x2="40.3" y2="386.4"/>
<line class="st2" x1="11.4" y1="355.6" x2="11.4" y2="277.1"/>
<line class="st2" x1="46.5" y1="393.1" x2="4.3" y2="348"/>
<line class="st3" x1="155.4" y1="199.5" x2="241.4" y2="199.5"/>
<line class="st3" x1="198.7" y1="242.2" x2="198.1" y2="156.7"/>
</svg>
